<?xml version="1.0" encoding="utf-8"?>
<!-- Generator: Adobe Illustrator 18.0.0, SVG Export Plug-In . SVG Version: 6.00 Build 0)  -->
<!DOCTYPE svg PUBLIC "-//W3C//DTD SVG 1.1 Tiny//EN" "http://www.w3.org/Graphics/SVG/1.1/DTD/svg11-tiny.dtd">
<svg version="1.1" baseProfile="tiny" id="Layer_1" xmlns="http://www.w3.org/2000/svg" xmlns:xlink="http://www.w3.org/1999/xlink"
	 x="0px" y="0px" viewBox="0 0 96 96" xml:space="preserve">
<path fill="#484848" d="M91.1,49.8v0.7v0.3l0.1-0.4L91.1,49.8 M96,49.7c-0.4,12.5-5.1,23.2-14.1,32.2C72.5,91.3,61.2,96,48,96
	c-13.3,0-24.7-4.7-34-14.1C5.1,72.9,0.4,62.2,0,49.7L0,49v-1c0-13.2,4.7-24.5,14-34C23.3,4.7,34.7,0,48,0c13.2,0,24.5,4.7,33.8,14
	C91.2,23.4,96,34.8,96,48v1V49.7"/>
<path fill="#666666" d="M47.8,12.8c1.1,0,2,0.4,2.8,1.2c0.7,0.7,1.1,1.5,1.2,2.3v0.5c0,1.1-0.4,2-1.2,2.8c-0.8,0.8-1.7,1.2-2.8,1.2
	c-1.1,0-2-0.4-2.8-1.2c-0.8-0.8-1.2-1.7-1.2-2.8l0.1-0.5c0.1-0.9,0.5-1.7,1.1-2.3C45.8,13.2,46.7,12.8,47.8,12.8 M50.6,76
	c0.7,0.7,1.1,1.4,1.2,2.3v0.5c0,1.1-0.4,2-1.2,2.8c-0.8,0.8-1.7,1.2-2.8,1.2c-1.1,0-2-0.4-2.8-1.2c-0.8-0.8-1.2-1.7-1.2-2.8l0.1-0.5
	c0.1-0.9,0.5-1.7,1.1-2.3c0.8-0.8,1.8-1.2,2.8-1.2C48.9,74.8,49.8,75.2,50.6,76 M76,45c0.8-0.8,1.7-1.2,2.8-1.2
	c1.1,0,2.1,0.4,2.9,1.2c0.6,0.7,1,1.4,1.1,2.3v0.5c0,1.1-0.4,2-1.1,2.8c-0.8,0.8-1.8,1.2-2.9,1.2c-1.1,0-2-0.4-2.8-1.2
	c-0.8-0.8-1.2-1.7-1.2-2.8l0.1-0.5C74.9,46.4,75.3,45.7,76,45 M14,45c0.8-0.8,1.7-1.2,2.8-1.2c1.1,0,2,0.4,2.8,1.2
	c0.6,0.7,1,1.4,1.2,2.3v0.5c0,1.1-0.4,2-1.2,2.8c-0.8,0.8-1.8,1.2-2.8,1.2c-1.1,0-2-0.4-2.8-1.2c-0.8-0.8-1.2-1.7-1.2-2.8l0.1-0.5
	C12.9,46.4,13.3,45.7,14,45"/>
</svg>
